<?xml version="1.0" encoding="UTF-8" standalone="no"?>
<!-- Created with Inkscape (http://www.inkscape.org/) -->

<svg
   width="512"
   height="512"
   viewBox="0 0 512 512"
   version="1.1"
   id="svg1"
   xmlns="http://www.w3.org/2000/svg"
   xmlns:svg="http://www.w3.org/2000/svg">
  <defs
     id="defs1">
    <clipPath
       id="clip0_103_113">
      <rect
         width="64"
         height="64"
         fill="#ffffff"
         id="rect7"
         x="0"
         y="0" />
    </clipPath>
    <mask
       id="mask0_103_113"
       maskUnits="userSpaceOnUse"
       x="10"
       y="13"
       width="42"
       height="42">
      <path
         opacity="0.95"
         d="M 10.3334,30.3334 H 34.4167 V 54.4167 Z"
         fill="#ffffff"
         id="path1" />
      <path
         opacity="0.75"
         d="m 51.4167,13.3334 h -17 v 17 z"
         fill="#ffffff"
         id="path2" />
      <path
         opacity="0.5"
         d="m 34.4167,30.3334 h 12.75 v 12.75 z"
         fill="#ffffff"
         id="path3" />
    </mask>
    <linearGradient
       id="paint0_linear_103_113"
       x1="34.416698"
       y1="72.833397"
       x2="33"
       y2="-2.24986"
       gradientUnits="userSpaceOnUse">
      <stop
         stop-color="#c9442c"
         id="stop6" />
      <stop
         offset="1"
         stop-color="#421152"
         id="stop7" />
    </linearGradient>
  </defs>
  <g
     id="layer1">
    <g
       clip-path="url(#clip0_103_113)"
       id="g6"
       transform="matrix(8.6779661,0,0,8.1269841,-21.694916,-4.0634921)">
      <rect
         x="4"
         y="2"
         width="56"
         height="60"
         rx="10"
         fill="#242424"
         stroke="#454545"
         stroke-width="3"
         id="rect1" />
      <mask
         id="mask6"
         maskUnits="userSpaceOnUse"
         x="10"
         y="13"
         width="42"
         height="42">
        <path
           opacity="0.95"
           d="M 10.3334,30.3334 H 34.4167 V 54.4167 Z"
           fill="#ffffff"
           id="path4" />
        <path
           opacity="0.75"
           d="m 51.4167,13.3334 h -17 v 17 z"
           fill="#ffffff"
           id="path5" />
        <path
           opacity="0.5"
           d="m 34.4167,30.3334 h 12.75 v 12.75 z"
           fill="#ffffff"
           id="path6" />
      </mask>
      <g
         mask="url(#mask0_103_113)"
         id="g5">
        <path
           d="m 33,-2.24998 c -18.7777,0 -34,15.22228 -34,33.99998 0,18.7777 15.2223,34 34,34 18.7777,0 34,-15.2223 34,-34 C 67,12.9723 51.7777,-2.24998 33,-2.24998 Z"
           fill="#dd3b3b"
           id="path7" />
        <path
           d="m 33,-2.24998 c -18.7777,0 -34,15.22228 -34,33.99998 0,18.7777 15.2223,34 34,34 18.7777,0 34,-15.2223 34,-34 C 67,12.9723 51.7777,-2.24998 33,-2.24998 Z"
           fill="url(#paint0_linear_103_113)"
           fill-opacity="0.66"
           style="mix-blend-mode:hue;fill:url(#paint0_linear_103_113)"
           id="path8" />
      </g>
    </g>
  </g>
</svg>
